HIERARCHY
ROOT Hips
{
	OFFSET -3.958830 18.904000 13.208200
	CHANNELS 6 Xposition Yposition Zposition Zrotation Yrotation Xrotation 
	JOINT LHipJoint
	{
		OFFSET 0.000000 0.000000 0.000000
		CHANNELS 3 Zrotation Yrotation Xrotation
		JOINT LeftUpLeg
		{
			OFFSET 1.800000 -1.400000 0.085000
			CHANNELS 3 Zrotation Yrotation Xrotation
			JOINT LeftLeg
			{
				OFFSET 2.215000 -6.000000 0.000000
				CHANNELS 3 Zrotation Yrotation Xrotation
				JOINT LeftFoot
				{
					OFFSET 2.500000 -6.900000 0.000000
					CHANNELS 3 Zrotation Yrotation Xrotation
					JOINT LeftToeBase
					{
						OFFSET 0.200000 -0.500000 1.950000
						CHANNELS 3 Zrotation Yrotation Xrotation
						End Site
						{
							OFFSET 0.000000 0.000000 0.000000
						}
					}
				}
			}
		}
	}
	JOINT RHipJoint
	{
		OFFSET 0.000000 0.000000 0.000000
		CHANNELS 3 Zrotation Yrotation Xrotation
		JOINT RightUpLeg
		{
			OFFSET -1.800000 -1.400000 0.085000
			CHANNELS 3 Zrotation Yrotation Xrotation
			JOINT RightLeg
			{
				OFFSET -2.215000 -6.000000 0.000000
				CHANNELS 3 Zrotation Yrotation Xrotation
				JOINT RightFoot
				{
					OFFSET -2.500000 -6.900000 0.000000
					CHANNELS 3 Zrotation Yrotation Xrotation
					JOINT RightToeBase
					{
						OFFSET -0.200000 -0.500000 1.950000
						CHANNELS 3 Zrotation Yrotation Xrotation
						End Site
						{
							OFFSET 0.000000 0.000000 0.000000
						}
					}
				}
			}
		}
	}
	JOINT LowerBack
	{
		OFFSET 0.000000 0.000000 0.000000
		CHANNELS 3 Zrotation Yrotation Xrotation
		JOINT Spine
		{
			OFFSET -0.087000 1.940000 -0.288900
			CHANNELS 3 Zrotation Yrotation Xrotation
			JOINT Spine1
			{
				OFFSET 0.000000 1.950000 0.060000
				CHANNELS 3 Zrotation Yrotation Xrotation
				JOINT Neck
				{
					OFFSET 0.000000 0.000000 0.000000
					CHANNELS 3 Zrotation Yrotation Xrotation
					JOINT Neck1
					{
						OFFSET 0.000000 1.600000 0.340000
						CHANNELS 3 Zrotation Yrotation Xrotation
						JOINT Head
						{
							OFFSET 0.000000 1.667000 -0.240000
							CHANNELS 3 Zrotation Yrotation Xrotation
							End Site
							{
								OFFSET 0.000000 0.000000 0.000000
							}
						}
					}
				}
				JOINT LeftShoulder
				{
					OFFSET 0.000000 0.000000 0.000000
					CHANNELS 3 Zrotation Yrotation Xrotation
					JOINT LeftArm
					{
						OFFSET 2.700000 1.550000 -0.730000
						CHANNELS 3 Zrotation Yrotation Xrotation
						JOINT LeftForeArm
						{
							OFFSET 5.450000 0.000000 0.000000
							CHANNELS 3 Zrotation Yrotation Xrotation
							JOINT LeftHand
							{
								OFFSET 3.450000 0.000000 0.000000
								CHANNELS 3 Zrotation Yrotation Xrotation
								JOINT LeftHandIndex1
								{
									OFFSET 0.750000 0.000000 0.000000
									CHANNELS 3 Zrotation Yrotation Xrotation
									End Site
									{
										OFFSET 0.000000 0.000000 0.000000
									}
								}
							}
						}
					}
				}
				JOINT RightShoulder
				{
					OFFSET 0.000000 0.000000 0.000000
					CHANNELS 3 Zrotation Yrotation Xrotation
					JOINT RightArm
					{
						OFFSET -2.700000 1.550000 -0.730000
						CHANNELS 3 Zrotation Yrotation Xrotation
						JOINT RightForeArm
						{
							OFFSET -5.450000 0.000000 0.000000
							CHANNELS 3 Zrotation Yrotation Xrotation
							JOINT RightHand
							{
								OFFSET -3.450000 0.000000 0.000000
								CHANNELS 3 Zrotation Yrotation Xrotation
								JOINT RightHandIndex1
								{
									OFFSET -0.750000 0.000000 0.000000
									CHANNELS 3 Zrotation Yrotation Xrotation
									End Site
									{
										OFFSET 0.000000 0.000000 0.000000
									}
								}
							}
						}
					}
				}
			}
		}
	}
}
MOTION
Frames: 12
Frame Time: 0.016667
8.677140 17.024130 -1.067420 0.816252 16.903980 -5.978817 -15.299478 13.870399 3.181608 -0.224955 -0.200982 -2.948191 -10.889548 7.616155 14.834222 -0.342331 5.310815 2.888856 0.050960 -0.310740 -0.099220 18.196764 -9.868329 3.336721 4.707180 4.293410 -36.122584 -8.372459 -2.311242 32.076920 -0.118133 -3.333455 3.289758 -0.094340 0.383130 0.016080 -3.616053 -4.049141 -7.982702 9.602581 -7.731662 16.764263 -2.660530 -5.829751 2.069162 0.117776 -7.417306 -10.993723 -22.601376 4.172294 43.445936 3.169470 -5.723600 -5.661600 -11.707931 -4.893152 2.784770 -53.929120 -11.987550 -1.173516 -52.502184 -45.296285 17.862630 -3.698109 3.090038 0.674500 0.054620 -0.188620 0.089060 11.923309 8.006640 7.001535 58.205708 -6.794663 -13.290703 13.737132 19.676224 0.190015 2.043659 -0.935583 -0.396000 0.427970 0.333370 -0.223380 
8.662370 17.036970 -1.069280 0.249822 15.953526 -6.118601 -15.281247 13.902668 3.167344 0.057197 -0.130998 -2.944080 -10.595518 7.491090 14.491210 -0.334656 5.255037 2.914493 0.048360 -0.309160 -0.106200 18.201933 -9.807318 3.377601 3.963102 4.212370 -35.896165 -3.241670 -3.150170 24.880248 0.055476 -2.333850 3.656226 -0.101180 0.386090 0.016330 -3.633044 -4.086150 -7.975270 10.319587 -7.897327 16.646168 -2.577328 -5.900729 1.963344 0.209530 -7.582055 -11.276437 -23.241065 4.925112 43.940421 3.136290 -5.452230 -5.122310 -12.620571 -5.980504 2.930808 -54.544536 -12.038874 -1.504009 -49.337168 -42.362000 14.976506 -3.696648 3.063292 0.667050 0.053900 -0.185750 0.095770 12.674826 9.124034 7.364865 57.716372 -6.790051 -13.379369 13.997878 20.075821 0.197534 2.047616 -0.944830 -0.387700 0.425480 0.328930 -0.214050 
8.646060 17.051550 -1.071990 -0.261539 14.872438 -6.240036 -15.271477 13.907609 3.131045 0.316895 -0.049791 -2.911876 -10.239296 7.360713 14.201071 -0.330991 5.188665 2.935612 0.060720 -0.288440 -0.097830 18.207968 -9.698104 3.471883 3.184324 4.281247 -35.791174 1.412832 -3.485535 18.272261 0.144888 -1.688618 3.898231 -0.100240 0.371950 0.017060 -3.631303 -4.138998 -8.013412 10.883916 -8.010755 16.745399 -2.503094 -5.915402 1.716295 0.401589 -7.710481 -11.493889 -23.847485 5.690096 44.631464 3.055030 -5.098500 -5.245220 -13.723854 -6.881094 2.982585 -55.241324 -11.957119 -1.848049 -45.809861 -39.258494 12.161307 -3.687281 3.028027 0.669700 0.043040 -0.168780 0.098850 13.429613 10.080724 7.656819 57.200342 -6.725782 -13.462626 14.485207 20.602724 0.252392 2.049449 -0.948540 -0.373080 0.423340 0.318180 -0.209760 
8.627150 17.068340 -1.075000 -0.732518 13.769465 -6.322351 -15.269421 13.887144 3.080633 0.578129 0.044532 -2.838441 -9.930472 7.237414 13.838151 -0.323390 5.119013 2.955233 0.073340 -0.262850 -0.084280 18.215190 -9.550515 3.606894 2.437434 4.459869 -35.973734 5.263643 -3.452288 12.668906 0.176335 -1.353655 4.028362 -0.097530 0.352920 0.014180 -3.616825 -4.204405 -8.085378 11.299643 -8.106197 16.908616 -2.399748 -5.916866 1.431354 0.647203 -7.785139 -11.737817 -24.401631 6.551515 45.594783 3.015540 -4.664660 -5.523140 -14.952064 -7.813773 3.082452 -56.143216 -11.644420 -2.316557 -41.770262 -36.103558 9.419359 -3.676075 2.977211 0.673860 0.029340 -0.145620 0.097970 14.220484 11.067974 7.927123 56.742642 -6.576519 -13.532029 14.875230 21.093792 0.306635 2.056051 -0.942141 -0.357980 0.425350 0.305030 -0.205680 
8.603350 17.085080 -1.081750 -1.032348 12.880533 -6.327186 -15.283702 13.882423 3.027742 0.596133 0.127353 -2.945112 -9.327299 7.053504 13.685633 -0.324312 5.017177 2.983383 0.093900 -0.233290 -0.064070 18.206580 -9.391477 3.759118 1.616983 4.623919 -36.597329 8.023208 -3.197113 8.281581 0.170284 -1.210418 4.079866 -0.094510 0.329320 0.016470 -3.561086 -4.323311 -8.174083 11.197990 -8.239538 17.240237 -2.110347 -6.010014 1.059701 0.878551 -7.842554 -11.991773 -24.869272 7.401126 46.444078 2.993640 -4.199620 -5.907650 -16.191138 -8.787128 3.231645 -57.124676 -11.156967 -2.863958 -37.340613 -32.915474 6.853263 -3.657860 2.934380 0.681680 0.011740 -0.119650 0.098290 15.101578 12.105224 8.164000 56.284480 -6.345238 -13.609944 15.098514 21.648792 0.351604 2.062609 -0.941858 -0.338780 0.421170 0.289140 -0.203240 
8.580430 17.099500 -1.085970 -1.321108 12.068635 -6.284696 -15.293708 13.876038 2.974179 0.523954 0.215314 -3.096988 -8.620014 6.840713 13.554509 -0.343813 4.913132 3.009909 0.110410 -0.215170 -0.046570 18.204837 -9.251981 3.902480 1.011147 4.818754 -37.518878 9.426496 -2.843725 5.137495 0.159472 -1.134405 4.100014 -0.090120 0.308230 0.020830 -3.523988 -4.420417 -8.246904 11.167323 -8.419188 17.533249 -1.993649 -6.137780 0.591838 1.099437 -7.913420 -12.121320 -25.246173 8.199755 47.033023 2.958620 -3.744760 -6.291580 -17.522738 -9.552424 3.279124 -58.037614 -10.573496 -3.246712 -32.836957 -29.354549 4.573093 -3.645882 2.891410 0.695080 -0.003190 -0.100310 0.094710 16.062804 12.909603 8.278954 55.971985 -6.056756 -13.704683 15.023238 22.198669 0.372624 2.063964 -0.941548 -0.328640 0.414760 0.281140 -0.207170 
8.558400 17.111440 -1.084290 -1.613101 11.319456 -6.232065 -15.301413 13.876295 2.934033 0.544762 0.313501 -3.155457 -8.072519 6.670680 13.320666 -0.365294 4.835614 3.029825 0.110400 -0.213820 -0.040890 18.204307 -9.143087 4.019264 0.525549 5.029171 -38.627082 9.758740 -2.554045 3.297732 0.160964 -1.073549 4.117062 -0.090510 0.296610 0.018690 -3.494146 -4.497435 -8.305870 11.159802 -8.606205 17.690365 -1.989524 -6.280648 0.128678 1.364229 -7.917555 -12.223647 -25.366812 8.911387 47.559103 2.690680 -3.184120 -6.267000 -18.941862 -10.297645 3.333915 -58.801357 -9.785322 -3.533368 -28.369125 -25.680305 2.684686 -3.645317 2.840838 0.703710 -0.008750 -0.093870 0.086080 17.004064 13.644922 8.369868 55.697932 -5.784536 -13.799386 15.062763 22.713542 0.400804 2.062130 -0.938691 -0.329070 0.411830 0.283940 -0.213910 
8.536070 17.120410 -1.077260 -1.826081 10.649680 -6.074406 -15.311198 13.883224 2.907546 0.552991 0.409514 -3.226480 -7.567275 6.502762 13.027531 -0.371480 4.754999 3.053126 0.104440 -0.217520 -0.039630 18.198351 -9.067557 4.113643 -0.011052 5.212168 -39.824047 9.409718 -2.361441 2.407855 0.169596 -1.017571 4.132742 -0.098730 0.289820 0.025870 -3.456572 -4.547876 -8.359855 10.961807 -8.681191 17.610685 -1.957294 -6.381719 -0.240974 1.651949 -7.756192 -12.299585 -24.938875 9.340040 48.103393 2.209460 -2.562590 -5.743400 -20.369118 -11.047594 3.442301 -59.513289 -8.838730 -3.733023 -23.829716 -22.112308 1.205810 -3.653959 2.799538 0.698180 -0.003920 -0.089980 0.079000 17.898246 14.317092 8.442390 55.595218 -5.557530 -13.940100 14.947585 23.288396 0.407725 2.063841 -0.945770 -0.320390 0.396660 0.284820 -0.214950 
8.508790 17.123460 -1.064790 -1.820579 10.146134 -5.811591 -15.325135 13.891303 2.892727 0.456878 0.470290 -3.371614 -7.158702 6.380081 12.915199 -0.365620 4.699994 3.076608 0.087950 -0.235470 -0.045130 18.185578 -9.022264 4.183188 -0.884527 5.264615 -41.113741 8.765684 -2.306464 2.417741 0.185482 -0.990723 4.141710 -0.114490 0.300580 0.037930 -3.406892 -4.574219 -8.402062 10.379561 -8.672074 17.316556 -1.939333 -6.506143 -0.571139 1.869538 -7.492056 -12.211604 -24.027347 9.494905 48.323491 1.623500 -1.898380 -4.743500 -21.698458 -11.517586 3.482887 -59.914258 -7.861394 -3.685957 -19.799620 -18.601290 0.205713 -3.682160 2.764616 0.678170 0.016200 -0.097200 0.076630 18.822686 14.631976 8.355935 55.570320 -5.272404 -14.028422 14.985127 23.856581 0.429406 2.067698 -0.959231 -0.312990 0.381460 0.287650 -0.211180 
8.478740 17.124780 -1.053390 -1.854870 9.861351 -5.562015 -15.338135 13.905279 2.879446 0.443849 0.507062 -3.548920 -6.703509 6.233840 12.748941 -0.364102 4.632258 3.107257 0.073360 -0.245800 -0.048840 18.169579 -9.001657 4.233402 -2.048351 5.187666 -42.186787 8.173680 -2.331764 2.803440 0.192718 -0.993244 4.141948 -0.126950 0.312070 0.046030 -3.358774 -4.584157 -8.435899 9.777859 -8.667713 17.086247 -1.955014 -6.641870 -0.955254 2.071293 -7.162916 -11.981100 -22.869476 9.434464 48.450985 1.053120 -1.264120 -4.186610 -22.917043 -11.646194 3.406780 -60.033967 -6.928220 -3.461746 -16.547964 -15.241270 -0.396716 -3.713799 2.723999 0.661410 0.034690 -0.099760 0.076570 19.651210 14.558620 8.123330 55.650161 -4.954902 -14.136771 15.162763 24.559129 0.483968 2.070331 -0.965407 -0.307690 0.376530 0.287640 -0.206050 
8.443350 17.120210 -1.040770 -1.949257 9.296330 -5.132906 -15.335607 13.880473 2.854615 0.577751 0.486608 -3.848142 -6.445300 6.117879 12.509123 -0.367413 4.580672 3.137049 0.045500 -0.277390 -0.065530 18.173245 -8.992258 4.288551 -3.154044 5.210575 -43.104714 7.667773 -2.353722 3.167990 0.208631 -1.017381 4.136203 -0.144180 0.336920 0.052910 -3.355968 -4.506930 -8.454697 9.465810 -8.539891 16.664799 -2.170397 -6.611734 -1.412332 2.197988 -6.895128 -11.574586 -21.585536 9.244085 47.992177 0.629030 -0.724990 -3.290900 -24.110780 -11.270002 3.209705 -59.830069 -5.750772 -3.318976 -14.133696 -12.330770 -0.728852 -3.759702 2.694277 0.639250 0.061620 -0.119320 0.075890 20.538059 14.049765 7.740537 55.694717 -4.689003 -14.213899 15.579684 25.332124 0.589162 2.070968 -0.979765 -0.312590 0.369400 0.296870 -0.202320 
8.407970 17.109870 -1.029860 -2.223737 8.897432 -4.500103 -15.319335 13.828418 2.805372 0.852513 0.368391 -4.475508 -6.186702 6.000433 12.378937 -0.381675 4.535029 3.173037 -0.007100 -0.341470 -0.106350 18.194463 -8.990498 4.342411 -4.362823 5.224394 -43.835300 7.374440 -2.363252 3.257020 0.239575 -1.082463 4.124908 -0.171000 0.388810 0.058430 -3.401464 -4.370939 -8.445576 9.569687 -8.394975 15.906493 -2.506986 -6.530746 -1.768866 2.267584 -6.597821 -10.996762 -19.997233 8.816176 46.856941 0.166770 -0.260890 -1.668410 -25.133420 -10.580860 2.910459 -59.546474 -4.704467 -3.166790 -12.222624 -9.877881 -0.905574 -3.831477 2.673121 0.602380 0.109700 -0.166600 0.075980 21.291129 13.166658 7.254901 55.744260 -4.494145 -14.280804 16.227685 26.226334 0.745105 2.064442 -1.003953 -0.331730 0.363020 0.321940 -0.197500 
